<?xml version="1.0" encoding="utf-8"?>
<!-- Generator: Adobe Illustrator 15.1.0, SVG Export Plug-In . SVG Version: 6.00 Build 0)  -->
<!DOCTYPE svg PUBLIC "-//W3C//DTD SVG 1.1//EN" "http://www.w3.org/Graphics/SVG/1.1/DTD/svg11.dtd">
<svg version="1.1" id="Layer_1" xmlns="http://www.w3.org/2000/svg" xmlns:xlink="http://www.w3.org/1999/xlink" x="0px" y="0px"
	 width="600px" height="600px" viewBox="0 0 600 600" enable-background="new 0 0 600 600" xml:space="preserve">
<g>
	<rect fill="#FFFFFF" width="600" height="600"/>
	<g>
		<g>
			<path fill="#184D87" d="M135.318,361.604h30.2L142.977,468.31h-30.2L135.318,361.604z"/>
			<path fill="#184D87" d="M241.892,450.696h-34.211l-8.474,17.613H168.44l59.194-106.706h32.869l14.102,106.706H243.05
				L241.892,450.696z M240.516,427.622l-2.661-38.359l-18.754,38.359H240.516z"/>
			<path fill="#184D87" d="M304.118,361.604h91.598l-5.565,26.349h-30.732l-16.976,80.357H312.31l16.976-80.357h-30.733
				L304.118,361.604z"/>
			<path fill="#184D87" d="M454.861,450.696H420.65l-8.474,17.613h-30.768l59.193-106.706h32.869l14.103,106.706H456.02
				L454.861,450.696z M453.484,427.622l-2.66-38.359l-18.755,38.359H453.484z"/>
		</g>
		<path fill="#184D87" d="M34.667,239h166c0,0,0.667,16,17.667,38S268,313.333,268,313.333s-9,27.334-34.667,27.334
			s-87.334,0-94.667,0C125.333,340.667,113,320,113,320s88.625,0,91.875,0s3.75-6.25,0-6.25s-83.5,0-93.25,0
			c-12.5,0-25.5-20.375-25.5-20.375s102.75,0,105.625,0s2.875-6.375,0-6.375S89.25,287,82,287c-10.75,0-20-21-20-21
			s112.25,0,115.25,0s4.5-6.25,0-6.25s-116.375,0-121.5,0C47.75,259.75,34.667,239,34.667,239z"/>
		<path fill="#184D87" d="M564.834,239h-166c0,0-0.668,16-17.668,38S331.5,313.333,331.5,313.333s9,27.334,34.666,27.334
			c25.668,0,87.334,0,94.668,0C474.166,340.667,486.5,320,486.5,320s-88.625,0-91.875,0s-3.75-6.25,0-6.25s83.5,0,93.25,0
			c12.5,0,25.5-20.375,25.5-20.375s-102.75,0-105.625,0s-2.875-6.375,0-6.375s102.5,0,109.75,0c10.75,0,20-21,20-21
			s-112.25,0-115.25,0s-4.5-6.25,0-6.25s116.375,0,121.5,0C551.75,259.75,564.834,239,564.834,239z"/>
		<g>
			<path fill="#184D87" d="M296.889,248.552v-34.285h-36.844c0.425,15.529,4.096,28.594,9.094,39.319
				C276.713,250.867,285.932,248.861,296.889,248.552z"/>
			<path fill="#184D87" d="M266.311,161.039c3.155-5.893,6.564-10.881,9.777-14.96c7.008-8.896,13.982-14.782,18.213-17.938
				c-18.139,1.203-34.689,8.194-47.814,19.164C247.889,148.896,254.332,155.694,266.311,161.039z"/>
			<path fill="#184D87" d="M296.889,167.764v-34.013c-5.94,4.644-16.573,14.345-24.903,29.536
				C278.846,165.687,287.123,167.462,296.889,167.764z"/>
			<path fill="#184D87" d="M327.596,259c-6.818-2.375-15.028-4.136-24.707-4.445v33.948C308.913,283.745,319.392,274.05,327.596,259
				z"/>
			<path fill="#184D87" d="M335.905,166.571c5.135,11.16,9.096,25.05,9.521,41.696h37.72c-0.793-22.371-10.396-42.486-25.455-56.997
				C355.808,153.444,348.783,160.836,335.905,166.571z"/>
			<path fill="#184D87" d="M353.229,147.251c-13.198-11.01-29.854-18.003-48.1-19.137c4.228,3.15,11.221,9.044,18.249,17.965
				c3.232,4.103,6.662,9.126,9.832,15.064C345.507,155.706,351.966,148.716,353.229,147.251z"/>
			<path fill="#184D87" d="M302.889,133.998v33.765c9.658-0.306,17.841-2.043,24.637-4.393
				C319.331,148.393,308.896,138.741,302.889,133.998z"/>
			<path fill="#184D87" d="M296.889,208.267v-34.503c-10.922-0.309-20.116-2.303-27.676-5.009
				c-5.039,10.762-8.747,23.891-9.169,39.512H296.889z"/>
			<path fill="#184D87" d="M254.04,208.267c0.427-16.683,4.404-30.599,9.556-41.771c-12.674-5.681-19.631-12.943-21.569-15.168
				c-15.024,14.507-24.604,34.599-25.396,56.94H254.04z"/>
			<path fill="#184D87" d="M263.526,255.852c-5.114-11.139-9.056-24.992-9.485-41.585h-37.41
				c0.791,22.29,10.327,42.342,25.292,56.841C243.705,269.037,250.665,261.633,263.526,255.852z"/>
			<path fill="#184D87" d="M330.281,168.815c-7.503,2.667-16.6,4.631-27.393,4.947v34.505h36.534
				C339.001,192.675,335.306,179.566,330.281,168.815z"/>
			<path fill="#184D87" d="M345.426,214.267c-0.429,16.555-4.354,30.383-9.451,41.509c13.112,5.856,20.127,13.408,21.819,15.39
				c15-14.503,24.562-34.579,25.353-56.899H345.426z"/>
			<path fill="#184D87" d="M333.273,261.239c-3.188,5.989-6.641,11.052-9.895,15.182c-7.057,8.957-14.078,14.862-18.3,18.002
				c18.316-1.126,35.029-8.161,48.258-19.233C352.357,274.046,345.861,266.835,333.273,261.239z"/>
			<path fill="#184D87" d="M302.889,214.267v34.287c10.827,0.317,19.95,2.293,27.467,4.973c4.983-10.714,8.642-23.759,9.066-39.259
				H302.889z"/>
			<path fill="#184D87" d="M246.378,275.136c13.155,11.033,29.765,18.066,47.974,19.262c-4.226-3.147-11.228-9.045-18.264-17.977
				c-3.24-4.113-6.679-9.151-9.856-15.108C253.93,266.819,247.497,273.841,246.378,275.136z"/>
			<path fill="#184D87" d="M296.889,288.749v-34.196c-9.806,0.302-18.11,2.091-24.987,4.505
				C280.244,274.336,290.928,284.088,296.889,288.749z"/>
		</g>
	</g>
</g>
</svg>
