<svg xmlns="http://www.w3.org/2000/svg" viewBox="0 0 48 48" role="img" aria-label="Google">
  <path fill="#EA4335" d="M24 9.5c3.2 0 6.1 1.1 8.4 3.2l6.3-6.3C34.7 2.7 29.7 0 24 0 14.6 0 6.5 5.4 2.6 13.2l7.3 5.7C11.6 13.3 17.3 9.5 24 9.5z"/>
  <path fill="#4285F4" d="M46.5 24.5c0-1.6-.1-2.8-.4-4H24v7.6h12.7c-.6 3-2.4 5.6-5 7.3l7.7 6c4.5-4.1 7.1-10.2 7.1-16.9z"/>
  <path fill="#FBBC05" d="M9.9 28.6c-.5-1.4-.8-2.8-.8-4.6s.3-3.2.8-4.6l-7.3-5.7C1 17.2 0 20.5 0 24s1 6.8 2.6 10.3l7.3-5.7z"/>
  <path fill="#34A853" d="M24 48c5.7 0 10.6-1.9 14.1-5.1l-7.7-6c-2.1 1.4-4.8 2.2-6.4 2.2-6.7 0-12.4-3.8-14.1-9.4l-7.3 5.7C6.5 42.6 14.6 48 24 48z"/>
</svg>
